<?xml version="1.0" encoding="iso-8859-1"?>
<!-- Uploaded to: SVG Repo, www.svgrepo.com, Generator: SVG Repo Mixer Tools -->
<svg fill="#000000" height="800px" width="800px" version="1.1" id="Layer_1" xmlns="http://www.w3.org/2000/svg" xmlns:xlink="http://www.w3.org/1999/xlink" 
	 viewBox="0 0 512 512" xml:space="preserve">
<g>
	<g>
		<path d="M358.4,308.281c21.726-15.653,29.257-36.588,29.257-59.595c0-21.169-11.242-40.587-29.962-55.747
			c-2.2-19.055-9.63-36.517-20.815-50.916c28.142-54.073,54.335-126.43,2.465-140.349C335.122,0.54,331.141,0,327.412,0
			c-37.009,0-50.467,52.947-54.867,103.758c-5.388-0.876-10.909-1.357-16.545-1.357c-5.639,0-11.162,0.483-16.551,1.359
			C235.046,52.947,221.587,0,184.587,0c-3.733,0-7.705,0.538-11.931,1.674c-51.87,13.921-25.679,86.278,2.464,140.349
			c-11.185,14.399-18.615,31.86-20.815,50.916c-18.72,15.16-29.962,34.578-29.962,55.747c0,23.006,7.532,43.943,29.257,59.594
			c-33.299,31.842-72.651,78.945-60.874,126.051c3.506,14.032,10.382,23.009,18.804,28.154c6.45,28.464,29.387,49.515,56.699,49.515
			h175.543c27.31,0,50.246-21.048,56.7-49.51c8.42-5.146,15.294-14.125,18.804-28.159C431.051,387.226,391.7,340.123,358.4,308.281z
			 M168.228,468.114c-6.906,0-14.629-9.384-14.629-21.943c0-12.559,7.722-21.943,14.629-21.943s14.629,9.384,14.629,21.943
			C182.857,458.73,175.134,468.114,168.228,468.114z M343.771,468.114c-6.906,0-14.629-9.384-14.629-21.943
			c0-12.559,7.722-21.943,14.629-21.943s14.629,9.384,14.629,21.943C358.4,458.73,350.677,468.114,343.771,468.114z
			 M343.771,380.343c-32.317,0-58.514,29.472-58.514,65.829c0,7.696,1.186,15.078,3.343,21.943h-65.2
			c2.158-6.865,3.343-14.247,3.343-21.943c0-36.356-26.197-65.829-58.514-65.829c-8.078,0-15.774,1.842-22.775,5.173
			c7.401-12.237,19.399-27.273,38.478-45.517l20.869-19.958v-27.47c-24.237,0-43.886-19.648-43.886-43.884
			c0-21.586,15.588-39.519,36.119-43.188l0.869-7.528c3.4-29.466,28.378-51.686,58.097-51.686s54.698,22.219,58.097,51.686
			l0.869,7.528c20.531,3.669,36.119,21.601,36.119,43.188c0,24.237-19.649,43.884-43.886,43.884v27.471l20.871,19.956
			c19.079,18.243,31.077,33.28,38.476,45.517C359.545,382.185,351.849,380.343,343.771,380.343z"/>
	</g>
</g>
<g>
	<g>
		<circle cx="223.085" cy="219.429" r="10.971"/>
	</g>
</g>
<g>
	<g>
		<circle cx="288.914" cy="219.429" r="10.971"/>
	</g>
</g>
<g>
	<g>
		<path d="M255.999,245.029c-12.118,0-21.943,1.277-21.943,10.971s9.825,21.943,21.943,21.943s21.943-12.249,21.943-21.943
			S268.118,245.029,255.999,245.029z"/>
	</g>
</g>
</svg>